<?xml version="1.0" encoding="UTF-8" standalone="no"?>
<svg
   xmlns:dc="http://purl.org/dc/elements/1.1/"
   xmlns:cc="http://creativecommons.org/ns#"
   xmlns:rdf="http://www.w3.org/1999/02/22-rdf-syntax-ns#"
   xmlns:svg="http://www.w3.org/2000/svg"
   xmlns="http://www.w3.org/2000/svg"
   xmlns:xlink="http://www.w3.org/1999/xlink"
   xmlns:sodipodi="http://sodipodi.sourceforge.net/DTD/sodipodi-0.dtd"
   xmlns:inkscape="http://www.inkscape.org/namespaces/inkscape"
   width="700mm"
   height="200mm"
   viewBox="0 0 700 200"
   version="1.1"
   id="svg8"
   inkscape:version="1.0 (4035a4fb49, 2020-05-01)"
   sodipodi:docname="logo.svg">
  <defs
     id="defs2">
    <linearGradient
       inkscape:collect="always"
       id="linearGradient979">
      <stop
         style="stop-color:#62b4ea;stop-opacity:1"
         offset="0"
         id="stop975" />
      <stop
         style="stop-color:#6246ea;stop-opacity:1"
         offset="1"
         id="stop977" />
    </linearGradient>
    <linearGradient
       inkscape:collect="always"
       id="linearGradient973">
      <stop
         style="stop-color:#62b4ea;stop-opacity:1"
         offset="0"
         id="stop969" />
      <stop
         style="stop-color:#6246ea;stop-opacity:1"
         offset="1"
         id="stop971" />
    </linearGradient>
    <linearGradient
       inkscape:collect="always"
       id="linearGradient967">
      <stop
         style="stop-color:#62b4ea;stop-opacity:1"
         offset="0"
         id="stop963" />
      <stop
         style="stop-color:#6246ea;stop-opacity:1"
         offset="1"
         id="stop965" />
    </linearGradient>
    <linearGradient
       inkscape:collect="always"
       id="linearGradient961">
      <stop
         style="stop-color:#62b4ea;stop-opacity:1"
         offset="0"
         id="stop957" />
      <stop
         style="stop-color:#6246ea;stop-opacity:1"
         offset="1"
         id="stop959" />
    </linearGradient>
    <linearGradient
       inkscape:collect="always"
       id="linearGradient955">
      <stop
         style="stop-color:#62b4ea;stop-opacity:1"
         offset="0"
         id="stop951" />
      <stop
         style="stop-color:#6246ea;stop-opacity:1"
         offset="1"
         id="stop953" />
    </linearGradient>
    <linearGradient
       inkscape:collect="always"
       id="linearGradient949">
      <stop
         style="stop-color:#62b4ea;stop-opacity:1"
         offset="0"
         id="stop945" />
      <stop
         style="stop-color:#6246ea;stop-opacity:1"
         offset="1"
         id="stop947" />
    </linearGradient>
    <linearGradient
       inkscape:collect="always"
       id="linearGradient943">
      <stop
         style="stop-color:#62b4ea;stop-opacity:1"
         offset="0"
         id="stop939" />
      <stop
         style="stop-color:#6246ea;stop-opacity:1"
         offset="1"
         id="stop941" />
    </linearGradient>
    <linearGradient
       id="linearGradient921"
       inkscape:collect="always">
      <stop
         id="stop917"
         offset="0"
         style="stop-color:#62b4ea;stop-opacity:1" />
      <stop
         id="stop919"
         offset="1"
         style="stop-color:#6246ea;stop-opacity:1" />
    </linearGradient>
    <linearGradient
       gradientUnits="userSpaceOnUse"
       y2="227.71364"
       x2="771.87439"
       y1="-14.967093"
       x1="115.46043"
       id="linearGradient923"
       xlink:href="#linearGradient921"
       inkscape:collect="always" />
    <linearGradient
       gradientUnits="userSpaceOnUse"
       y2="227.71364"
       x2="771.87439"
       y1="-14.967093"
       x1="115.46043"
       id="linearGradient925"
       xlink:href="#linearGradient979"
       inkscape:collect="always" />
    <linearGradient
       gradientUnits="userSpaceOnUse"
       y2="227.71364"
       x2="771.87439"
       y1="-14.967093"
       x1="115.46043"
       id="linearGradient927"
       xlink:href="#linearGradient973"
       inkscape:collect="always" />
    <linearGradient
       gradientUnits="userSpaceOnUse"
       y2="227.71364"
       x2="771.87439"
       y1="-14.967093"
       x1="115.46043"
       id="linearGradient929"
       xlink:href="#linearGradient967"
       inkscape:collect="always" />
    <linearGradient
       gradientUnits="userSpaceOnUse"
       y2="227.71364"
       x2="771.87439"
       y1="-14.967093"
       x1="115.46043"
       id="linearGradient931"
       xlink:href="#linearGradient961"
       inkscape:collect="always" />
    <linearGradient
       gradientUnits="userSpaceOnUse"
       y2="227.71364"
       x2="771.87439"
       y1="-14.967093"
       x1="115.46043"
       id="linearGradient933"
       xlink:href="#linearGradient955"
       inkscape:collect="always" />
    <linearGradient
       gradientUnits="userSpaceOnUse"
       y2="227.71364"
       x2="771.87439"
       y1="-14.967093"
       x1="115.46043"
       id="linearGradient935"
       xlink:href="#linearGradient949"
       inkscape:collect="always" />
    <linearGradient
       gradientTransform="matrix(0.96391712,0,0,0.96391712,2.8678079,3.3990082)"
       gradientUnits="userSpaceOnUse"
       y2="227.71364"
       x2="771.87439"
       y1="-14.967093"
       x1="115.46043"
       id="linearGradient937"
       xlink:href="#linearGradient943"
       inkscape:collect="always" />
  </defs>
  <sodipodi:namedview
     id="base"
     pagecolor="#ffffff"
     bordercolor="#666666"
     borderopacity="1.0"
     inkscape:pageopacity="0.0"
     inkscape:pageshadow="2"
     inkscape:zoom="0.7"
     inkscape:cx="287.89025"
     inkscape:cy="500.82013"
     inkscape:document-units="mm"
     inkscape:current-layer="layer1"
     inkscape:document-rotation="0"
     showgrid="false"
     inkscape:window-width="1440"
     inkscape:window-height="847"
     inkscape:window-x="-8"
     inkscape:window-y="90"
     inkscape:window-maximized="1" />
  <metadata
     id="metadata5">
    <rdf:RDF>
      <cc:Work
         rdf:about="">
        <dc:format>image/svg+xml</dc:format>
        <dc:type
           rdf:resource="http://purl.org/dc/dcmitype/StillImage" />
        <dc:title></dc:title>
      </cc:Work>
    </rdf:RDF>
  </metadata>
  <g
     inkscape:label="Layer 1"
     inkscape:groupmode="layer"
     id="layer1">
    <path
       inkscape:transform-center-y="14.150075"
       inkscape:transform-center-x="6.9301745e-06"
       inkscape:randomized="0"
       inkscape:rounded="0.06"
       inkscape:flatsided="true"
       sodipodi:arg2="2.6179939"
       sodipodi:arg1="1.5707963"
       sodipodi:r2="34.881916"
       sodipodi:r1="69.763824"
       sodipodi:cy="93.263672"
       sodipodi:cx="79.478348"
       sodipodi:sides="3"
       id="path843"
       style="opacity:0.997;fill:url(#linearGradient937);fill-opacity:1;stroke:#6246ea;stroke-width:0;stroke-linecap:round;stroke-linejoin:round;stroke-miterlimit:4;stroke-dasharray:none;stroke-opacity:1;paint-order:markers fill stroke"
       sodipodi:type="star"
       d="m 79.47835,163.0275 c -7.250069,0 -64.042282,-98.366994 -60.417247,-104.645739 3.625034,-6.278744 117.209457,-6.278747 120.834487,-3e-6 C 143.52063,64.660502 86.728419,163.0275 79.47835,163.0275 Z" />
    <path
       d="M 157.23948,55.436275 V 164.16744 h 26.06571 V 55.436275 Z"
       style="font-weight:bold;font-size:207.611px;line-height:1.25;font-family:'Maven Pro';-inkscape-font-specification:'Maven Pro Bold';letter-spacing:0px;word-spacing:0px;fill:url(#linearGradient935);fill-opacity:1;stroke-width:0;stroke-miterlimit:4;stroke-dasharray:none"
       id="path849" />
    <path
       d="m 211.60497,87.672644 q 0,-16.384191 11.49023,-25.108239 11.5966,-8.830442 28.83192,-8.830442 16.1714,0 29.68305,7.766538 v 19.895078 q -11.06464,-5.21314 -25.10824,-5.21314 -18.72479,0 -18.72479,9.149605 0,4.57482 5.31955,7.234587 5.31954,2.553381 12.97968,4.574815 7.66013,1.91504 15.21389,5.319534 7.66015,3.29811 12.9797,11.27744 5.42593,7.97931 5.42593,20.32066 0,13.72442 -11.17105,22.76764 -11.06466,9.04322 -29.36389,9.04322 -18.7248,0 -34.47062,-8.93683 v -23.2996 q 14.36276,9.57517 30.74696,9.57517 11.27743,0 14.68194,-2.55338 3.40451,-2.65977 3.40451,-7.87293 0,-4.78758 -5.42594,-7.66013 -5.31955,-2.97895 -12.97969,-5.10676 -7.55376,-2.23421 -15.21389,-5.21315 -7.55376,-2.97895 -12.97971,-9.78797 -5.31954,-6.915403 -5.31954,-17.341716 z"
       style="font-weight:bold;font-size:207.611px;line-height:1.25;font-family:'Maven Pro';-inkscape-font-specification:'Maven Pro Bold';letter-spacing:0px;word-spacing:0px;fill:url(#linearGradient933);fill-opacity:1;stroke-width:0;stroke-miterlimit:4;stroke-dasharray:none"
       id="path851" />
    <path
       d="M 306.18647,77.884684 V 55.436214 H 324.4857 V 23.199787 h 26.17215 v 32.236427 h 25.74659 v 22.44847 H 350.65785 V 131.5057 q 0,7.02179 2.87256,9.46877 2.97895,2.44699 10.42631,2.44699 7.02179,0 12.44772,-2.34058 v 21.59734 q -7.66014,3.19172 -16.70336,3.19172 -0.31917,0 -0.53196,0 -16.1714,0 -25.42742,-9.57517 -9.256,-9.57517 -9.256,-26.38494 V 77.884684 Z"
       style="font-weight:bold;font-size:207.611px;line-height:1.25;font-family:'Maven Pro';-inkscape-font-specification:'Maven Pro Bold';letter-spacing:0px;word-spacing:0px;fill:url(#linearGradient931);fill-opacity:1;stroke-width:0;stroke-miterlimit:4;stroke-dasharray:none"
       id="path853" />
    <path
       d="m 410.44953,151.40079 q -13.29886,-14.46917 -13.29886,-41.49245 0,-27.023274 13.29886,-41.492433 13.29886,-14.46917 38.08795,-14.46917 24.89545,0 38.1943,14.46917 13.29886,14.469159 13.29886,41.492433 0,27.02328 -13.29886,41.49245 -13.29885,14.46915 -38.1943,14.46915 -24.78909,0 -38.08795,-14.46915 z m 19.04396,-68.834906 q -6.17065,7.128193 -6.17065,27.448856 0,20.21427 6.17065,27.34246 6.27707,7.02179 19.15036,7.02179 12.8733,0 19.04398,-7.02179 6.17066,-7.12819 6.17066,-27.34246 0,-20.320663 -6.17066,-27.448856 -6.17068,-7.128186 -19.04398,-7.128186 -12.87329,0 -19.15036,7.128186 z"
       style="font-weight:bold;font-size:207.611px;line-height:1.25;font-family:'Maven Pro';-inkscape-font-specification:'Maven Pro Bold';letter-spacing:0px;word-spacing:0px;fill:url(#linearGradient929);fill-opacity:1;stroke-width:0;stroke-miterlimit:4;stroke-dasharray:none"
       id="path855" />
    <path
       d="M 525.88361,164.16768 V 65.224171 q 2.65978,-1.276685 7.34097,-2.978943 4.68119,-1.808642 18.83117,-5.000378 14.15001,-3.298113 28.08719,-3.510887 v 22.661248 q -16.38418,0.212786 -28.08719,3.617298 v 84.155171 z"
       style="font-weight:bold;font-size:207.611px;line-height:1.25;font-family:'Maven Pro';-inkscape-font-specification:'Maven Pro Bold';letter-spacing:0px;word-spacing:0px;fill:url(#linearGradient927);fill-opacity:1;stroke-width:0;stroke-miterlimit:4;stroke-dasharray:none"
       id="path857" />
    <path
       d="m 597.05912,128.63315 q 0,-3.29813 0.63837,-6.70263 0.63832,-3.51091 3.29804,-8.72406 2.76612,-5.21315 7.44733,-9.14961 4.68131,-3.93648 13.83092,-6.702618 9.14969,-2.872561 21.5974,-2.872561 8.93675,0 19.15033,1.48946 0,-20.533433 -23.08681,-20.533433 -18.29929,0 -31.81092,5.53233 v -21.17179 q 15.00105,-6.064275 33.30035,-6.064275 23.29966,0 35.64091,11.915776 12.34133,11.809395 12.34133,34.257857 v 29.363884 q 0,15.00111 -11.27735,25.85298 -11.17115,10.74548 -34.47069,10.74548 -23.93794,0 -35.32169,-10.85187 -11.27752,-10.85187 -11.27752,-26.38492 z m 25.85292,-3.29813 q 0,17.4481 20.53355,17.4481 0.10641,0 0.21274,0 19.57585,0 19.57585,-16.49058 v -13.72443 q -9.14949,-1.27668 -15.63936,-1.38308 -24.57632,0 -24.68278,14.14999 z"
       style="font-weight:bold;font-size:207.611px;line-height:1.25;font-family:'Maven Pro';-inkscape-font-specification:'Maven Pro Bold';letter-spacing:0px;word-spacing:0px;fill:url(#linearGradient925);fill-opacity:1;stroke-width:0;stroke-miterlimit:4;stroke-dasharray:none"
       id="path859" />
    <ellipse
       ry="42.978481"
       rx="33.775749"
       cy="107.56577"
       cx="448.49786"
       id="path906"
       style="opacity:0.997;fill:url(#linearGradient923);fill-opacity:1;stroke:#6246ea;stroke-width:0;stroke-linejoin:round;stroke-opacity:1;stroke-miterlimit:4;stroke-dasharray:none" />
  </g>
</svg>
